<svg width="32" height="32" viewBox="0 0 32 32" fill="none" xmlns="http://www.w3.org/2000/svg">
  <defs>
    <linearGradient id="g" x1="0" y1="0" x2="32" y2="32" gradientUnits="userSpaceOnUse">
      <stop offset="0%" stop-color="#ec4899"/>
      <stop offset="100%" stop-color="#8b5cf6"/>
    </linearGradient>
  </defs>
  <path d="M16 4L28 10V22C28 27 22.5 31 16 31C9.5 31 4 27 4 22V10L16 4Z" fill="url(#g)"/>
  <path d="M16 25C16 25 8 19 8 14.5C8 11.5 10.5 9 13.5 9C14.8 9 16 9.7 16 9.7C16 9.7 17.2 9 18.5 9C21.5 9 24 11.5 24 14.5C24 19 16 25 16 25Z" fill="white" opacity="0.9"/>
</svg>
