<svg width="180" height="40" viewBox="0 0 180 40" fill="none" xmlns="http://www.w3.org/2000/svg">
  <defs>
    <linearGradient id="fam-grad" x1="0" y1="0" x2="1" y2="1">
      <stop offset="0%" stop-color="#f472b6"/>
      <stop offset="50%" stop-color="#a855f7"/>
      <stop offset="100%" stop-color="#f97316"/>
    </linearGradient>
    <linearGradient id="fam-icon" x1="0" y1="0" x2="1" y2="1">
      <stop offset="0%" stop-color="#ec4899"/>
      <stop offset="100%" stop-color="#8b5cf6"/>
    </linearGradient>
  </defs>
  <!-- Heart shield icon -->
  <path d="M20 6L31 11V22C31 27.5 26.5 32.5 20 35C13.5 32.5 9 27.5 9 22V11L20 6Z" fill="url(#fam-icon)"/>
  <!-- Heart inside shield -->
  <path d="M20 26.5C20 26.5 13 21 13 17C13 14.8 14.8 13 17 13C18.2 13 19.3 13.5 20 14.4C20.7 13.5 21.8 13 23 13C25.2 13 27 14.8 27 17C27 21 20 26.5 20 26.5Z" fill="white" fill-opacity="0.9"/>
  <!-- Text -->
  <text x="40" y="26" font-family="'Plus Jakarta Sans', Inter, system-ui, sans-serif" font-size="22" font-weight="800" fill="white" letter-spacing="-0.5">AIB</text>
  <text x="81" y="26" font-family="'Plus Jakarta Sans', Inter, system-ui, sans-serif" font-size="22" font-weight="800" fill="url(#fam-grad)" letter-spacing="-0.5">family</text>
</svg>
